<?xml version="1.0" encoding="UTF-8" standalone="no"?>
<svg
   xmlns:dc="http://purl.org/dc/elements/1.1/"
   xmlns:cc="http://creativecommons.org/ns#"
   xmlns:rdf="http://www.w3.org/1999/02/22-rdf-syntax-ns#"
   xmlns:svg="http://www.w3.org/2000/svg"
   xmlns="http://www.w3.org/2000/svg"
   xmlns:xlink="http://www.w3.org/1999/xlink"
   xmlns:sodipodi="http://sodipodi.sourceforge.net/DTD/sodipodi-0.dtd"
   xmlns:inkscape="http://www.inkscape.org/namespaces/inkscape"
   inkscape:version="1.0 (4035a4fb49, 2020-05-01)"
   sodipodi:docname="chef7.svg"
   xml:space="preserve"
   style="enable-background:new 0 0 469.333 469.333;"
   viewBox="0 0 469.333 469.333"
   y="0px"
   x="0px"
   id="Layer_1"
   version="1.1"><metadata
   id="metadata8357"><rdf:RDF><cc:Work
       rdf:about=""><dc:format>image/svg+xml</dc:format><dc:type
         rdf:resource="http://purl.org/dc/dcmitype/StillImage" /><dc:title></dc:title></cc:Work></rdf:RDF></metadata><defs
   id="defs8355"><linearGradient
     inkscape:collect="always"
     id="linearGradient8944"><stop
       style="stop-color:#00e67c;stop-opacity:1;"
       offset="0"
       id="stop8940" /><stop
       style="stop-color:#00e6c6;stop-opacity:1"
       offset="1"
       id="stop8942" /></linearGradient><linearGradient
     inkscape:collect="always"
     id="linearGradient8938"><stop
       style="stop-color:#00e67c;stop-opacity:1;"
       offset="0"
       id="stop8934" /><stop
       style="stop-color:#00e67c;stop-opacity:1"
       offset="1"
       id="stop8936" /></linearGradient><linearGradient
     id="linearGradient8924"
     inkscape:collect="always"><stop
       id="stop8920"
       offset="0"
       style="stop-color:#00e67c;stop-opacity:1;" /><stop
       id="stop8922"
       offset="1"
       style="stop-color:#00e67c;stop-opacity:0.46451613" /></linearGradient><linearGradient
     gradientUnits="userSpaceOnUse"
     y2="221.39177"
     x2="489.63556"
     y1="234.6665"
     x1="0"
     id="linearGradient8926"
     xlink:href="#linearGradient8924"
     inkscape:collect="always" /><linearGradient
     gradientTransform="translate(-16.741169,-51.468815)"
     y2="221.39177"
     x2="489.63556"
     y1="234.6665"
     x1="0"
     gradientUnits="userSpaceOnUse"
     id="linearGradient8928"
     xlink:href="#linearGradient8924"
     inkscape:collect="always" /><linearGradient
     gradientTransform="translate(-16.741169,-51.468815)"
     y2="221.39177"
     x2="489.63556"
     y1="234.6665"
     x1="0"
     gradientUnits="userSpaceOnUse"
     id="linearGradient8930"
     xlink:href="#linearGradient8944"
     inkscape:collect="always" /><linearGradient
     y2="221.39177"
     x2="489.63556"
     y1="234.6665"
     x1="0"
     gradientUnits="userSpaceOnUse"
     id="linearGradient8932"
     xlink:href="#linearGradient8938"
     inkscape:collect="always" /></defs><sodipodi:namedview
   inkscape:current-layer="g8316"
   inkscape:window-maximized="1"
   inkscape:window-y="-8"
   inkscape:window-x="-8"
   inkscape:cy="247.00366"
   inkscape:cx="575.6272"
   inkscape:zoom="1.2806275"
   inkscape:snap-center="false"
   showgrid="false"
   id="namedview8353"
   inkscape:window-height="1017"
   inkscape:window-width="1920"
   inkscape:pageshadow="2"
   inkscape:pageopacity="0"
   guidetolerance="10"
   gridtolerance="10"
   objecttolerance="10"
   borderopacity="1"
   bordercolor="#666666"
   pagecolor="#ffffff" />
<g
   id="g8320">
	<g
   transform="rotate(-30,231.54303,226.85782)"
   inkscape:transform-center-y="-1.8968858"
   inkscape:transform-center-x="11.073283"
   style="fill:url(#linearGradient8926);fill-opacity:1"
   id="g8318">
		<g
   transform="matrix(0.8017282,-0.01033753,-0.01033753,0.81366494,66.163875,110.71722)"
   style="fill:url(#linearGradient8932);fill-opacity:1"
   id="g8316">
			<path
   style="fill:url(#linearGradient8928);fill-opacity:1"
   id="path8312"
   d="m 281.92583,151.19818 c -20.083,0 -31.76,3.688 -41.156,6.646 -7.125,2.25 -12.76,4.021 -21.062,4.021 -7.177,0 -15.104,-3.208 -25.146,-7.271 -15.479,-6.26 -34.75,-14.063 -61.969,-14.063 -5.896,0 -10.667,4.771 -10.667,10.667 0,5.896 4.771,10.667 10.667,10.667 23.073,0 39.49,6.646 53.969,12.5 11.219,4.542 21.813,8.833 33.146,8.833 11.594,0 19.667,-2.542 27.479,-5.01 8.823,-2.781 17.948,-5.656 34.74,-5.656 5.896,0 10.667,-4.771 10.667,-10.667 -0.002,-5.897 -4.773,-10.667 -10.668,-10.667 z" />
			<path
   style="fill:url(#linearGradient8930);fill-opacity:1"
   id="path8314"
   d="m 318.85283,-51.468815 c -36.47,0 -82.88,13.452 -125.056,35.97 -26.404,-9.15 -52.934,-14.637 -76.798,-14.637 -83.739999,0 -133.739999,47.854 -133.739999,128 0,56.345995 39.328,99.905995 85.592,118.357995 l -0.259,158.902 c -0.021,11.417 4.406,22.146 12.469,30.219 8.063,8.073 18.781,12.521 30.197999,12.521 h 213.333 c 23.531,0 42.667,-19.135 42.667,-42.667 v -180.424 c 46.15,-18.51 85.333,-62.001 85.333,-118.241995 0,-80.1460004 -50,-128 -133.739,-128 z m 27.073,426.666995 c 0,11.76 -9.573,21.333 -21.333,21.333 h -213.334 c -5.708,0 -11.073,-2.219 -15.103999,-6.26 -4.021,-4.031 -6.24,-9.396 -6.229,-15.104 l 0.069,-42.636 H 345.92583 Z m -27.073,-192 c -5.896,0 -10.667,4.771 -10.667,10.667 0,5.896 4.771,10.667 10.667,10.667 8.957,0 18.047,-1.163 27.073,-3.186 v 109.853 H 90.029831 l 0.145,-88.458 c 8.944,1.987 17.948999,3.125 26.823999,3.125 5.896,0 10.667,-4.771 10.667,-10.667 0,-5.896 -4.772,-10.668 -10.667,-10.668 -53.166999,0 -112.4059992,-43.802 -112.4059992,-106.666995 0,-96.2710004 78.6040002,-106.6670004 112.4059992,-106.6670004 61.708,0 146.417,40.4270004 188.812,90.1250004 3.844,4.49 10.563,5 15.042,1.188 4.479,-3.823 5.01,-10.552 1.188,-15.042 -24.858,-29.133 -62.069,-54.646 -101.676,-72.3830004 34.367,-15.9149996 69.966,-25.2209996 98.488,-25.2209996 33.802,0 112.406,10.396 112.406,106.667 0,62.864995 -59.24,106.666995 -112.406,106.666995 z" />
		</g>
	</g>
</g>
<g
   id="g8322">
</g>
<g
   id="g8324">
</g>
<g
   id="g8326">
</g>
<g
   id="g8328">
</g>
<g
   id="g8330">
</g>
<g
   id="g8332">
</g>
<g
   id="g8334">
</g>
<g
   id="g8336">
</g>
<g
   id="g8338">
</g>
<g
   id="g8340">
</g>
<g
   id="g8342">
</g>
<g
   id="g8344">
</g>
<g
   id="g8346">
</g>
<g
   id="g8348">
</g>
<g
   id="g8350">
</g>
</svg>
