<?xml version="1.0" encoding="iso-8859-1"?>
<!-- Generator: Adobe Illustrator 19.0.0, SVG Export Plug-In . SVG Version: 6.00 Build 0)  -->
<svg version="1.1" id="Layer_1" xmlns="http://www.w3.org/2000/svg" xmlns:xlink="http://www.w3.org/1999/xlink" x="0px" y="0px"
	 viewBox="0 0 512.01 512.01" style="enable-background:new 0 0 512.01 512.01;" xml:space="preserve">
<g>
	<g>
		<path d="M402.761,37.093c-3.895-10.729-11.728-19.292-22.081-24.125L361.494,4.02c-10.353-4.833-21.956-5.292-32.663-1.427
			c-10.707,3.917-19.269,11.771-24.102,22.146l-4.375,9.458c-0.063,0.156-0.125,0.313-0.188,0.469l-44.162,108.797l-44.35-109.266
			l-4.375-9.458C202.469,14.385,193.928,6.52,183.2,2.604c-10.686-3.896-22.331-3.417-32.663,1.417l-19.227,8.948
			c-10.332,4.833-18.165,13.396-22.06,24.125s-3.354,22.333,1.479,32.656l101.337,181.96l-93.297,229.842
			c-4.145,10.792,1.125,23.198,11.957,28.25c3.187,1.49,6.562,2.198,9.874,2.198c7.916,0,15.498-4.063,19.394-11.156L256,329.944
			l95.975,170.827c3.937,7.156,11.52,11.24,19.456,11.24c3.291,0,6.666-0.719,9.853-2.208c10.832-5.052,16.103-17.458,11.874-28.448
			l-93.211-229.642l96.919-172.525l4.416-9.427C406.115,59.427,406.656,47.822,402.761,37.093z M134.463,70.145l-4.417-9.448
			c-2.438-5.167-2.708-10.969-0.75-16.333c1.938-5.365,5.854-9.646,11.021-12.063l19.229-8.948
			c5.125-2.417,10.938-2.677,16.333-0.708c5.354,1.958,9.625,5.885,12.021,11.052l24.283,59.264l-51.424,23.974L134.463,70.145z
			 M171.237,135.58l49.04-22.863l24.216,59.102l-22.182,54.643L171.237,135.58z M373.38,489.291l-2.771,1.094l-102.38-182.208
			l18.366-32.691L373.38,489.291z M141.401,490.385c-0.083,0-2.729-1.01-2.813-1.01l152.953-376.747l48.654,22.684L141.401,490.385z
			 M381.963,60.708l-31.322,55.944l-51.069-23.809l20.266-49.917l4.25-9.219c2.417-5.177,6.708-9.115,12.063-11.073
			c5.354-1.938,11.188-1.688,16.333,0.719l19.188,8.948c5.188,2.417,9.104,6.698,11.042,12.063
			C384.672,49.729,384.401,55.531,381.963,60.708z"/>
	</g>
</g>
<g>
</g>
<g>
</g>
<g>
</g>
<g>
</g>
<g>
</g>
<g>
</g>
<g>
</g>
<g>
</g>
<g>
</g>
<g>
</g>
<g>
</g>
<g>
</g>
<g>
</g>
<g>
</g>
<g>
</g>
</svg>
