<svg id="Capa_1" enable-background="new 0 0 552.47 552.47" height="512" viewBox="0 0 552.47 552.47" width="512" xmlns="http://www.w3.org/2000/svg"><path d="m323.481 87.689 67.183-54.138-21.682-26.874-75.482 60.827v-67.504h-34.53v67.504l-75.482-60.827-21.682 26.875 67.183 54.138c-58.338 4.424-125.401 23.851-125.401 109.725 0 72.819 53.531 355.055 172.647 355.055s172.647-282.237 172.647-355.055c0-85.875-67.063-105.302-125.401-109.726zm-47.246 430.25c-18.335 0-35.739-13.355-51.678-34.529h34.413c9.543 0 17.265-7.722 17.265-17.265s-7.722-17.265-17.265-17.265h-55.687c-37.219-71.447-62.332-180.527-64.793-241.706h85.951c9.543 0 17.265-7.722 17.265-17.265s-7.722-17.265-17.265-17.265h-82.975c10.283-37.929 48.382-51.794 134.769-51.794 103.268 0 138.118 19.322 138.118 76.562 0 12.398-1.252 27.585-3.442 44.291h-82.882c-9.543 0-17.265 7.722-17.265 17.265s7.722 17.265 17.265 17.265h77.278c-6.238 33.065-15.522 69.248-27.218 103.588h-50.06c-9.543 0-17.265 7.722-17.265 17.265s7.722 17.265 17.265 17.265h37.238c-23.967 58.264-54.945 103.588-89.032 103.588z"/><path d="m258.97 310.765h-51.794c-9.543 0-17.265 7.722-17.265 17.265s7.722 17.265 17.265 17.265h51.794c9.543 0 17.265-7.722 17.265-17.265s-7.722-17.265-17.265-17.265z"/></svg>